# xmcd
#
# Track frame offsets:
#	150
#	22735
#	44768
#	62685
#	81822
#	101301
#	123978
#	140629
#	157144
#	174469
#	193854
#	213276
#	234778
#	254211
#	272009
#	290451
#
# Disc length: 4150 seconds
#
# Revision: 0
# Processed by: cddbd v1.5.2PL0 Copyright (c) Steve Scherf et al.
# Submitted via: dBpowerAMP V4.0
#
DISCID=e7103410
DTITLE=Tim McGraw - Greatest Hits Vol 2
DYEAR=1900
DGENRE=Country
TTITLE0=Live Like You Were Dying
TTITLE1=My Old Friend
TTITLE2=Like We Never Loved At All (With Faith Hill)
TTITLE3=The Cowboy in Me
TTITLE4=When the Stars Go Blue
TTITLE5=Real Good Man
TTITLE6=She's My Kind of Rain
TTITLE7=Grown Men Don't Cry
TTITLE8=Not a Moment too Soon
TTITLE9=Watch the Wind Blow By
TTITLE10=Over and Over
TTITLE11=Everywhere
TTITLE12=Beautiful People
TTITLE13=Red Ragtop
TTITLE14=My Little Girl
TTITLE15=I got Friends that Do
EXTD=Greatest Hits Vol 2\n
EXTT0=
EXTT1=
EXTT2=
EXTT3=
EXTT4=
EXTT5=
EXTT6=
EXTT7=
EXTT8=
EXTT9=
EXTT10=
EXTT11=
EXTT12=
EXTT13=
EXTT14=
EXTT15=
PLAYORDER=
